<svg xmlns="http://www.w3.org/2000/svg" viewBox="0 0 363.09 363.09"><defs><style>.cls-1{fill:none;stroke:#000;stroke-miterlimit:10;stroke-width:3px;}</style></defs><title>Asset 3</title><g id="Layer_2" data-name="Layer 2"><g id="Layer_1-2" data-name="Layer 1"><path class="cls-1" d="M249.06,1.5H114A112.54,112.54,0,0,0,1.5,114v135A112.54,112.54,0,0,0,114,361.59h135A112.54,112.54,0,0,0,361.59,249.06V114A112.54,112.54,0,0,0,249.06,1.5Zm78.77,247.56a78.85,78.85,0,0,1-78.77,78.77H114a78.85,78.85,0,0,1-78.77-78.77V114A78.85,78.85,0,0,1,114,35.26h135A78.85,78.85,0,0,1,327.83,114Z"/><path class="cls-1" d="M181.54,91.52a90,90,0,1,0,90,90A90,90,0,0,0,181.54,91.52Zm0,146.29a56.27,56.27,0,1,1,56.27-56.27A56.34,56.34,0,0,1,181.54,237.81Z"/><circle class="cls-1" cx="278.32" cy="84.77" r="12"/></g></g></svg>